<?xml version="1.0" encoding="UTF-8" standalone="no"?>
<!-- Created with Inkscape (http://www.inkscape.org/) -->

<svg
   version="1.1"
   id="svg2"
   width="373.69333"
   height="141.74667"
   viewBox="0 0 373.69333 141.74667"
   sodipodi:docname="logo_pittcooking_wit (1).eps"
   xmlns:inkscape="http://www.inkscape.org/namespaces/inkscape"
   xmlns:sodipodi="http://sodipodi.sourceforge.net/DTD/sodipodi-0.dtd"
   xmlns="http://www.w3.org/2000/svg"
   xmlns:svg="http://www.w3.org/2000/svg">
  <defs
     id="defs6" />
  <sodipodi:namedview
     id="namedview4"
     pagecolor="#ffffff"
     bordercolor="#000000"
     borderopacity="0.25"
     inkscape:showpageshadow="2"
     inkscape:pageopacity="0.0"
     inkscape:pagecheckerboard="0"
     inkscape:deskcolor="#d1d1d1" />
  <g
     id="g8"
     inkscape:groupmode="layer"
     inkscape:label="ink_ext_XXXXXX"
     transform="matrix(1.3333333,0,0,-1.3333333,0,141.74667)">
    <g
       id="g10"
       transform="scale(0.1)">
      <path
         d="m 354.895,619.598 h 272.097 c 174,6.695 208.434,172.34 211.16,187.093 11.227,128.086 -96.902,132.497 -97.214,132.512 H 465.629 L 354.895,619.598 Z M 0,619.598 h 231.379 l 137.527,396.932 13.672,39.45 h 364.285 c 0.672,-0.03 232.532,-9.66 206.891,-263.73 l -0.453,-4.105 C 953.164,787.355 908.598,513.488 631.098,502.816 H 314.43 L 240.938,290.707 H 2536.92 l 38.67,-108.723 H 80.9922 L 190.918,502.816 H 38.6367 L 0,619.598 v 0"
         style="fill:#ffffff;fill-opacity:1;fill-rule:nonzero;stroke:none"
         id="path12" />
      <path
         d="m 899.27,363.176 241.81,695.464 h 123.26 L 1022.53,363.176 H 899.27 v 0"
         style="fill:#ffffff;fill-opacity:1;fill-rule:nonzero;stroke:none"
         id="path14" />
      <path
         d="m 1410.44,363.176 202.74,583.117 h -289.89 l 35.72,116.777 h 673.72 L 1990.2,946.293 H 1736.45 L 1533.7,363.176 h -123.26 v 0"
         style="fill:#ffffff;fill-opacity:1;fill-rule:nonzero;stroke:none"
         id="path16" />
      <path
         d="m 2139.3,363.176 202.74,583.117 h -251.03 l 35.72,116.777 h 675.96 L 2760.15,946.293 H 2465.3 L 2262.56,363.176 H 2139.3 v 0"
         style="fill:#ffffff;fill-opacity:1;fill-rule:nonzero;stroke:none"
         id="path18" />
      <path
         d="M 471.012,0.730469 521.875,151.223 h 15.25 l 0.977,-98.6839 31.925,98.6839 h 17.485 L 538.816,0.730469 H 523.125 L 521.82,0.921875 521.055,98.6563 488.531,0.730469 H 471.012 Z M 391.273,151.223 l -15.859,-48.77 41.633,48.77 h 21.879 L 378.813,80.8125 390.48,0.730469 H 373.648 L 364.434,63.9766 363.949,63.4102 362.98,64.2422 342.32,0.730469 H 324.809 L 373.766,151.223 h 17.507 z m 93.313,0 L 435.625,0.730469 H 418.113 L 467.07,151.223 h 17.516 z m -396.8126,1.093 h 26.0816 c 1.926,0 3.743,-0.3 5.418,-0.847 3.25,-1.086 5.864,-3.047 7.684,-5.656 1.773,-2.54 2.746,-5.625 2.746,-8.985 0,-1.883 -0.316,-3.855 -0.976,-5.848 l -9.247,-27.91 h -17.562 l 10.785,32.559 H 87.7734 c -1.0351,0 -2.2461,-0.52 -3.3632,-1.359 -1.1954,-0.899 -2.1446,-2.071 -2.5508,-3.29 L 44,16.6797 h 24.9258 c 1.039,0 2.25,0.5312 3.3672,1.3594 1.1992,0.9023 2.1445,2.0703 2.5508,3.3007 L 84.957,51.8789 H 102.52 L 90.6797,16.1289 C 89.1953,11.6406 86.0781,7.60938 82.2617,4.75 78.3633,1.82031 73.6016,0 68.9258,0 H 42.8477 C 40.9219,0 39.1055,0.300781 37.4297,0.851563 34.1797,1.92969 31.5625,3.89844 29.7461,6.5 c -1.7734,2.55078 -2.7422,5.6211 -2.7422,8.9883 0,1.8828 0.3164,3.8515 0.9727,5.8515 L 66.0195,136.195 c 1.4922,4.481 4.6055,8.504 8.418,11.375 3.9023,2.934 8.6641,4.746 13.3359,4.746 z M 654.07,104.34 l 10.789,31.289 h -24.582 c -1.035,0 -2.246,-0.52 -3.363,-1.359 -1.195,-0.899 -2.144,-2.071 -2.551,-3.29 L 596.504,16.6797 h 24.59 c 1.035,0 2.246,0.5312 3.363,1.3594 1.195,0.9023 2.145,2.0703 2.551,3.3007 l 13.984,42.2188 h -15.371 l 5.199,16.6875 h 33.262 L 660.453,69.3008 642.848,16.1289 C 641.355,11.6406 638.242,7.60938 634.43,4.75 630.527,1.82031 625.766,0 621.094,0 h -25.742 c -1.922,0 -3.743,0.300781 -5.414,0.851563 -3.25,1.078127 -5.868,3.046877 -7.68,5.648437 -1.778,2.55078 -2.75,5.6211 -2.75,8.9883 0,1.8828 0.316,3.8515 0.976,5.8515 l 38.047,114.8552 c 1.485,4.481 4.598,8.504 8.41,11.375 3.903,2.934 8.661,4.746 13.336,4.746 h 25.743 c 2,0 3.882,-0.32 5.613,-0.918 3.156,-1.093 5.726,-3.054 7.527,-5.64 1.762,-2.543 2.731,-5.586 2.731,-8.899 0,-1.925 -0.328,-3.945 -1.032,-5.976 L 671.711,104.34 H 654.07 Z m -363.965,31.289 c -1.039,0 -2.246,-0.52 -3.363,-1.359 -1.195,-0.899 -2.148,-2.071 -2.554,-3.29 L 246.332,16.6797 h 28.898 c 1.036,0 2.247,0.5195 3.364,1.3594 1.195,0.9023 2.144,2.0703 2.551,3.3007 l 37.859,114.2892 h -28.899 z m 0,16.687 h 30.051 c 1.922,0 3.739,-0.3 5.418,-0.847 3.242,-1.086 5.864,-3.047 7.68,-5.656 1.773,-2.54 2.746,-5.625 2.746,-8.985 0,-1.883 -0.316,-3.855 -0.98,-5.848 L 296.977,16.1289 C 295.492,11.6406 292.379,7.60938 288.559,4.75 284.664,1.82031 279.902,0 275.23,0 h -30.054 c -1.922,0 -3.738,0.300781 -5.414,0.851563 -3.246,1.078127 -5.867,3.046877 -7.684,5.648437 -1.773,2.55078 -2.742,5.6211 -2.742,8.9883 0,1.8828 0.312,3.8515 0.977,5.8515 l 38.042,114.8552 c 1.489,4.481 4.598,8.504 8.418,11.375 3.895,2.934 8.657,4.746 13.332,4.746 z M 186.059,135.629 c -1.036,0 -2.246,-0.52 -3.364,-1.359 -1.195,-0.899 -2.144,-2.071 -2.55,-3.29 L 142.285,16.6797 h 28.899 c 1.039,0 2.246,0.5195 3.363,1.3594 1.195,0.9023 2.148,2.0703 2.555,3.3007 l 37.855,114.2892 h -28.898 z m 0,16.687 h 30.054 c 1.922,0 3.735,-0.3 5.414,-0.847 3.246,-1.086 5.868,-3.047 7.684,-5.656 1.773,-2.54 2.742,-5.625 2.742,-8.985 0,-1.883 -0.312,-3.855 -0.976,-5.848 L 192.934,16.1289 C 191.445,11.6406 188.336,7.60938 184.516,4.75 180.621,1.82031 175.859,0 171.184,0 h -30.051 c -1.922,0 -3.738,0.300781 -5.414,0.851563 -3.246,1.078127 -5.864,3.046877 -7.684,5.648437 -1.773,2.55078 -2.746,5.6211 -2.746,8.9883 0,1.8828 0.316,3.8515 0.981,5.8515 l 38.043,114.8552 c 1.484,4.481 4.597,8.504 8.414,11.375 3.898,2.934 8.656,4.746 13.332,4.746 v 0"
         style="fill:#ffffff;fill-opacity:1;fill-rule:nonzero;stroke:none"
         id="path20" />
    </g>
  </g>
</svg>
